<?xml version="1.0" encoding="UTF-8"?><svg id="uuid-40f3abdd-7988-4dba-b768-aa494c174cd4" xmlns="http://www.w3.org/2000/svg" viewBox="0 0 24 24"><path d="m16.733,4.878c1.285.752,2.303,1.771,3.056,3.056.752,1.285,1.128,2.693,1.128,4.225s-.376,2.939-1.128,4.225c-.753,1.285-1.771,2.304-3.056,3.056-1.286.752-2.693,1.128-4.225,1.128s-2.939-.376-4.225-1.128c-1.286-.752-2.304-1.771-3.056-3.056-.752-1.285-1.128-2.693-1.128-4.225s.375-2.939,1.128-4.225c.752-1.285,1.77-2.304,3.056-3.056,1.285-.752,2.693-1.128,4.225-1.128s2.939.376,4.225,1.128Zm1.23,3.384l-1.395-.984-5.415,6.234-2.707-2.543-1.395,1.312,3.404,4.758h1.395l6.112-8.777Z" fill="#fff" stroke-width="0"/></svg>