<?xml version="1.0" encoding="UTF-8"?><svg id="uuid-ca22475b-80d5-4505-ad30-930c888352e3" xmlns="http://www.w3.org/2000/svg" viewBox="0 0 24 24"><path d="m21.774,18.68c-.345.359-.767.539-1.266.539H3.68c-.5,0-.922-.18-1.266-.539-.344-.359-.516-.789-.516-1.289V6.609c0-.5.171-.93.516-1.289.344-.359.766-.539,1.266-.539h16.829c.499,0,.921.18,1.266.539.344.359.516.789.516,1.289v10.781c0,.5-.172.93-.516,1.289Zm-2.156-12.117l-7.5,6.047-7.5-6.047c-.438-.375-.828-.406-1.172-.094-.157.188-.219.367-.188.539.031.172.109.32.234.445l4.875,4.5-4.688,4.875c-.188.219-.204.422-.047.609.062.094.164.141.305.141s.258-.031.352-.094l5.25-4.453,2.578,2.297,2.532-2.297,5.25,4.453c.094.062.211.094.352.094s.258-.047.352-.141c.156-.188.124-.391-.094-.609l-4.688-4.875,4.875-4.5c.124-.125.211-.273.258-.445s-.023-.352-.211-.539c-.312-.312-.688-.281-1.125.094Z" stroke-width="0"/></svg>