<?xml version="1.0" encoding="UTF-8"?><svg id="uuid-1bfb691f-47ff-45ac-9f00-876a87113f64" xmlns="http://www.w3.org/2000/svg" viewBox="0 0 20 20"><path d="m9.897,1.438c1.531,0,2.939.376,4.225,1.128s2.304,1.771,3.056,3.056,1.128,2.693,1.128,4.225-.376,2.939-1.128,4.225-1.771,2.304-3.056,3.056-2.693,1.128-4.225,1.128-2.939-.376-4.225-1.128c-1.286-.752-2.304-1.771-3.056-3.056-.752-1.285-1.128-2.693-1.128-4.225s.375-2.939,1.128-4.225c.752-1.285,1.77-2.304,3.056-3.056,1.285-.752,2.693-1.128,4.225-1.128Zm0,14.725c1.148,0,2.201-.287,3.158-.861s1.723-1.34,2.297-2.297.861-2.01.861-3.158-.287-2.201-.861-3.158-1.34-1.723-2.297-2.297-2.01-.861-3.158-.861-2.201.287-3.158.861c-.958.574-1.723,1.34-2.297,2.297s-.861,2.01-.861,3.158.287,2.201.861,3.158,1.339,1.723,2.297,2.297c.957.574,2.01.861,3.158.861Zm-.738-5.578c.082.082.164.137.246.164l-.041.041,4.717,2.215-3.158-3.363-1.025-5.045-1.025,5.045-.041.205c0,.301.109.547.328.738Z" stroke-width="0"/></svg>