<?xml version="1.0" encoding="UTF-8"?><svg id="uuid-5444d01f-ec9d-42e1-90a0-56e73679f538" xmlns="http://www.w3.org/2000/svg" viewBox="0 0 24 24"><path d="m12,14.203l3.281-2.203c.906,0,1.781.266,2.625.797s1.516,1.219,2.016,2.062c.499.844.75,1.703.75,2.578v3l-1.266.328c-1.095.281-2.173.5-3.234.656-1.5.25-2.899.375-4.195.375s-2.695-.125-4.195-.375c-1.062-.156-2.125-.375-3.188-.656l-1.266-.328v-3c0-.906.234-1.773.703-2.602s1.117-1.5,1.945-2.016c.828-.516,1.727-.773,2.695-.773l3.328,2.156Zm0-3.094c-.625,0-1.172-.219-1.641-.656-.406-.344-.75-.812-1.031-1.406-.188-.438-.344-.922-.469-1.453l-.141-.609c-.188-1.188-.016-2.219.516-3.094.625-1,1.539-1.5,2.742-1.5s2.102.5,2.695,1.5c.531.875.719,1.906.562,3.094l-.141.609c-.125.531-.281,1.016-.469,1.453-.281.594-.609,1.062-.984,1.406-.469.438-1.016.656-1.641.656Z" stroke-width="0"/></svg>