<?xml version="1.0" encoding="UTF-8"?><svg id="uuid-56697a5d-1147-45d0-a021-0d405522eb39" xmlns="http://www.w3.org/2000/svg" viewBox="0 0 20 20"><path d="m12.669,3.87c.82.492,1.477,1.148,1.969,1.969s.738,1.723.738,2.707c0,.844-.234,1.664-.703,2.461-.375.703-.902,1.348-1.582,1.934l-.176.141c-.656.539-1.16,1.043-1.512,1.512-.797,1.031-1.278,1.84-1.441,2.426-.164-.586-.645-1.395-1.441-2.426-.352-.469-.856-.973-1.512-1.512l-.176-.141c-.68-.586-1.208-1.23-1.582-1.934-.469-.797-.703-1.618-.703-2.461,0-.984.246-1.887.738-2.707s1.148-1.477,1.969-1.969c.82-.492,1.723-.738,2.707-.738s1.887.246,2.707.738Zm-4.887,2.479c-.61.598-.914,1.324-.914,2.18s.304,1.588.914,2.197c.609.61,1.336.915,2.18.915s1.57-.305,2.18-.915c.609-.609.914-1.342.914-2.197s-.305-1.582-.914-2.18-1.336-.896-2.18-.896-1.57.299-2.18.896Z" stroke-width="0"/></svg>