<svg version="1.1" id="Layer_1" xmlns="http://www.w3.org/2000/svg" x="0" y="0" viewBox="0 0 181 40" style="enable-background:new 0 0 181 40" xml:space="preserve"><style>.st0{fill:#344054}</style><path class="st0" d="M5.8 39.1V.1h8.8v39H5.8zm31.3-7.9c-.4 1.2-1 2.3-1.7 3.2-.8 1-1.7 1.9-2.8 2.5-1 .6-2.2 1.1-3.3 1.4-1.2.3-2.4.5-3.7.6-1.3.1-2.5.1-3.7.1h-3.1v-7.3h.7c.1 0 .1 0 .2.1 0 0 .1 0 .2.1h.8c.9 0 1.8 0 2.8-.1 1-.1 1.8-.3 2.6-.7.8-.4 1.4-.9 1.9-1.6.5-.7.8-1.6.8-2.8 0-1.1-.2-1.9-.7-2.6-.5-.6-1.1-1.1-1.8-1.5-.7-.3-1.6-.5-2.5-.6-.9-.1-1.8-.1-2.6-.1h-.8c-.1 0-.2 0-.3.1-.1 0-.2 0-.3.1H19v-7h.8c.1 0 .2 0 .3.1.1 0 .1.1.3.1h.8c.7 0 1.4 0 2.2-.1.8-.1 1.6-.2 2.3-.5.7-.3 1.3-.7 1.8-1.2s.7-1.2.7-2.1c0-.9-.2-1.7-.7-2.2-.5-.6-1.1-1-1.8-1.3-.7-.3-1.5-.5-2.3-.6-.8-.1-1.6-.1-2.4-.1h-.8c-.1 0-.2 0-.3.1-.1 0-.1 0-.3.1h-.8L18.7.1h.7s0-.1.1-.1h.6c1.8 0 3.6.1 5.6.3 1.9.2 3.7.6 5.3 1.2 1.6.6 3 1.6 4 3 1 1.3 1.6 3.1 1.6 5.4 0 2.1-.5 3.8-1.4 5-.9 1.2-2.3 2.3-4 3.3 2.1 1 3.7 2.2 4.8 3.7 1.1 1.5 1.7 3.4 1.7 5.8 0 1.2-.2 2.4-.6 3.5zM45 39.1V.1h8.4v39H45zM71.7 39.9c-.5 0-1.1-.1-1.6-.1-1.9-.3-3.5-1-4.8-1.9-1.3-1-2.4-2.2-3.2-3.6-.8-1.4-1.4-3-1.8-4.7-.4-1.7-.5-3.5-.5-5.4 0-2.2.3-4.2.8-6.1.6-1.9 1.4-3.6 2.5-5s2.5-2.6 4.2-3.4c1.7-.8 3.6-1.3 5.9-1.4v6.8c-1.1.1-2 .5-2.6 1-.7.5-1.1 1.2-1.4 2-.3.8-.5 1.7-.6 2.7-.1 1-.1 2-.1 3v3.3c0 1 .2 1.9.4 2.6.3.8.7 1.4 1.4 2 .6.6 1.6 1 2.9 1.3v7c-.4-.1-.9-.1-1.5-.1zm18.6-10.7c-.4 1.7-1 3.3-1.9 4.7-.9 1.4-2 2.6-3.3 3.6-1.4 1-3 1.7-4.9 2-.4.1-.9.1-1.3.2-.4 0-.9.1-1.4.2V33c1.1-.1 2-.5 2.6-1.1.6-.6 1.1-1.3 1.4-2.1.3-.9.5-1.8.5-2.8.1-1 .1-2 .1-3 0-1.1 0-2.2-.1-3.1 0-1-.2-1.9-.5-2.7-.3-.8-.7-1.5-1.4-2-.6-.5-1.6-.9-2.8-1.1V8.3c4.5.3 7.8 1.8 10.1 4.5 2.2 2.8 3.3 6.4 3.3 11 .2 1.9 0 3.7-.4 5.4zM107.5 39.9c-.5 0-1.1-.1-1.6-.1-1.9-.3-3.5-1-4.8-1.9s-2.4-2.2-3.2-3.6c-.8-1.4-1.4-3-1.8-4.7-.4-1.7-.5-3.5-.5-5.4 0-2.2.3-4.2.8-6.1.6-1.9 1.4-3.6 2.5-5s2.5-2.6 4.2-3.4c1.7-.8 3.6-1.3 5.9-1.4v6.8c-1.1.1-2 .5-2.6 1-.7.5-1.1 1.2-1.4 2-.3.8-.5 1.7-.6 2.7-.1 1-.1 2-.1 3v3.3c0 1 .2 1.9.4 2.6.3.8.7 1.4 1.4 2 .6.6 1.6 1 2.9 1.3v7c-.5-.1-1-.1-1.5-.1zM126 29.2c-.4 1.7-1 3.3-1.9 4.7-.9 1.4-2 2.6-3.3 3.6-1.4 1-3 1.7-4.9 2-.4.1-.9.1-1.3.2-.4 0-.9.1-1.4.2V33c1.1-.1 2-.5 2.6-1.1.6-.6 1.1-1.3 1.4-2.1.3-.9.5-1.8.6-2.8.1-1 .1-2 .1-3 0-1.1 0-2.2-.1-3.1 0-1-.2-1.9-.5-2.7-.3-.8-.7-1.5-1.4-2-.6-.5-1.6-.9-2.8-1.1V8.3c4.5.3 7.8 1.8 10.1 4.5 2.2 2.8 3.3 6.4 3.3 11 .1 1.9-.1 3.7-.5 5.4zM132 39.1V9.3h8.6v29.8H132zm34.7 0-.1-17.4c0-.7-.1-1.4-.2-2.1s-.4-1.3-.7-1.8-.8-.9-1.3-1.2c-.6-.3-1.2-.5-2.1-.5-.9 0-1.6.2-2.2.5-.6.3-1 .8-1.3 1.3-.3.5-.6 1.2-.7 1.9-.1.7-.2 1.4-.2 2.2v17h-8.6V20.1c0-.8-.1-1.5-.2-2-.1-.6-.3-1-.6-1.4-.3-.3-.7-.5-1.2-.5-.4 0-.9.1-1.4.3-.5.2-.9.5-1.3.7v-6.5h-.1c.1-.1.3-.3.8-.6.4-.3 1-.7 1.8-1.1.8-.4 1.6-.6 2.4-.6 1.8 0 3.2.4 4.2 1.3s1.8 2.1 2.6 3.8c1.1-1.6 2.3-2.8 3.8-3.7 1.5-.9 3.2-1.3 5.2-1.3 2.1 0 3.7.4 5 1.1 1.3.7 2.2 1.7 2.9 2.8.7 1.2 1.1 2.6 1.4 4.1s.3 3.2.3 5v17.6h-8.2z"/></svg>