<svg version="1.1" id="Layer_1" xmlns="http://www.w3.org/2000/svg" x="0" y="0" viewBox="0 0 166 40" style="enable-background:new 0 0 166 40" xml:space="preserve"><style>.st0{fill:#344054}</style><path class="st0" d="M22.3 12.7h-9.1v20.8H9.1V12.7H0V8.1h22.3v4.6zM42.7 31.1c0 .3-.1.6-.2.9s-.3.5-.4.7-.4.4-.6.5c-.2.1-.5.2-.8.2h-9.3c-.5 0-1-.1-1.6-.2s-1.1-.3-1.7-.6-1.1-.7-1.6-1.1c-.5-.4-1-1-1.4-1.6s-.7-1.4-.9-2.2-.4-1.8-.4-2.8V14.3h4.1v10.6c0 .6.1 1.1.3 1.6.2.5.4.9.8 1.2.3.3.7.6 1.1.8.4.2.9.3 1.4.3h7.2V14.3h4.1v16.8zM62.1 18.9H55v14.5h-4.2V18.9h-5.4v-4.6h5.4V8.1H55v6.2h7.2v4.6zM83.4 27c0 .8-.1 1.5-.3 2.1s-.4 1.2-.7 1.7c-.3.5-.6.9-1 1.2-.4.3-.8.6-1.2.8-.4.2-.9.4-1.3.5s-.9.2-1.2.2h-7.4c-.6 0-1.2-.1-1.9-.3-.7-.2-1.3-.6-1.9-1.1s-1.1-1.2-1.4-2c-.4-.8-.6-1.8-.6-3v-6.2c0-1.2.2-2.2.6-3 .4-.8.9-1.5 1.4-2s1.2-.9 1.9-1.1 1.3-.3 1.9-.3h7.4c1.1 0 2 .2 2.7.6s1.3 1 1.8 1.6c.5.6.8 1.3 1 2.1.2.8.3 1.5.3 2.1V27zm-4.1-6.2c0-.6-.1-1.1-.4-1.4-.3-.3-.7-.5-1.2-.5h-7.4c-.5 0-1 .2-1.3.5-.3.3-.4.8-.4 1.4V27c0 .6.1 1.1.4 1.4.3.3.7.5 1.3.5h7.4c.6 0 1-.2 1.3-.5.3-.3.4-.8.4-1.4v-6.2zM113.8 33.4h-4.1V18.3l-7.3 14.3c-.2.4-.4.6-.8.8s-.7.3-1 .3c-.4 0-.7-.1-1-.3s-.6-.4-.8-.7l-7.3-14.3v15.1h-4.1V10c0-.5.1-1 .4-1.4.3-.4.6-.7 1.1-.8.2-.1.4-.1.7-.1.2 0 .4.1.6.2.2.1.4.2.6.4.2.2.3.4.4.6l9.4 18.2L110 8.9c.2-.4.6-.8 1-1s.9-.2 1.3-.1.8.4 1.1.8c.3.4.4.9.4 1.4v23.4zM135.7 27.1c0 .6-.1 1.3-.3 2.1-.2.7-.5 1.4-1 2.1-.4.6-1 1.2-1.8 1.6-.7.4-1.6.6-2.6.6h-7.4c-.6 0-1.2-.1-1.8-.3-.7-.2-1.3-.6-1.8-1.1s-1-1.2-1.4-2c-.4-.8-.6-1.8-.6-2.9 0-.6.1-1.3.3-2.1s.5-1.4 1-2.1c.4-.6 1-1.2 1.8-1.6s1.6-.6 2.6-.6h7.4v4.4h-7.4c-.6 0-1 .2-1.3.6s-.5.9-.5 1.4c0 .6.2 1.1.5 1.4s.8.5 1.3.5h7.4c.6 0 1-.2 1.3-.6.3-.4.5-.8.5-1.4v-6.4c0-.6-.2-1.1-.5-1.4-.3-.4-.8-.5-1.3-.5h-9v-4.4h9c.6 0 1.2.1 1.8.3.7.2 1.3.6 1.8 1.1.6.5 1 1.2 1.4 2 .4.8.6 1.8.6 2.9v6.4zM158.2 33.4h-4.1V22.8c0-.6-.1-1.1-.3-1.6-.2-.5-.4-.9-.8-1.2-.3-.3-.7-.6-1.1-.8-.4-.2-.9-.3-1.4-.3h-7.2v14.5h-4.1V16.6c0-.3.1-.6.2-.9.1-.3.3-.5.4-.7.2-.2.4-.4.7-.5s.5-.2.8-.2h9.3c.5 0 1.1.1 1.6.2.6.1 1.1.3 1.7.6.6.3 1.1.7 1.6 1.1.5.4 1 1 1.4 1.6.4.6.7 1.4.9 2.2.2.8.3 1.8.3 2.8v10.6zM166 10.4h-4.1V6.2h4.1v4.2zm0 23h-4.1V14.3h4.1v19.1z"/></svg>