<svg version="1.1" id="Layer_1" xmlns="http://www.w3.org/2000/svg" x="0" y="0" viewBox="0 0 275 40" style="enable-background:new 0 0 275 40" xml:space="preserve"><style>.st0{fill:#344054}</style><path class="st0" d="M4.9 34.8V9H0V5h14.1v4H9.2v25.8H4.9zM15.8 34.8V5H20v10.6h.1c.4-.7 1-1.2 1.6-1.7.6-.4 1.4-.6 2.4-.6.5 0 1.1.1 1.6.3.5.2 1 .5 1.4.9.4.4.8 1 1 1.6.3.7.4 1.5.4 2.4v16.3h-4.3V20.1c0-.8-.2-1.4-.5-1.8-.4-.4-.9-.7-1.5-.7-.8 0-1.4.3-1.7.8-.3.5-.5 1.2-.5 2.2v14.3h-4.2zM44.4 25.8H36v2.9c0 .7.2 1.2.6 1.5.4.4.9.5 1.5.5.8 0 1.3-.2 1.6-.7.3-.5.4-.9.5-1.4h4.3c0 1.9-.6 3.4-1.7 4.5-.6.6-1.2 1-2 1.4-.9.4-1.8.5-2.8.5-1.3 0-2.5-.3-3.4-.8-.9-.6-1.7-1.3-2.2-2.2-.3-.6-.5-1.2-.6-1.9-.1-.7-.2-1.5-.2-2.4v-7c0-.9.1-1.7.2-2.4s.3-1.4.6-1.9c.5-.9 1.2-1.7 2.2-2.2.9-.6 2.1-.8 3.4-.8 1 0 1.9.2 2.7.5.8.3 1.5.8 2 1.4 1.1 1.3 1.7 2.8 1.7 4.7v5.8zM36 22.4h4.2V20c0-.8-.2-1.4-.6-1.8-.4-.4-.9-.6-1.5-.6s-1.2.2-1.5.6c-.4.4-.6 1-.6 1.8v2.4zM55.6 34.8V5h6.9c5 0 7.5 2.9 7.5 8.7 0 1.8-.3 3.3-.8 4.5-.5 1.2-1.5 2.2-2.9 3l4.6 13.6h-4.5l-4-12.7h-2.6v12.7h-4.2zM59.8 9v9.3h2.4c.8 0 1.4-.1 1.8-.3.4-.2.8-.5 1-.9.2-.4.4-.9.5-1.4.1-.6.1-1.2.1-2s0-1.4-.1-2c-.1-.6-.3-1.1-.5-1.5-.5-.8-1.5-1.2-3-1.2h-2.2zM85.5 25.8H77v2.9c0 .7.2 1.2.6 1.5.4.4.9.5 1.5.5.8 0 1.3-.2 1.6-.7.3-.5.4-.9.5-1.4h4.3c0 1.9-.6 3.4-1.7 4.5-.6.6-1.2 1-2 1.4-.8.4-1.7.5-2.7.5-1.3 0-2.5-.3-3.4-.8-.9-.6-1.7-1.3-2.2-2.2-.3-.6-.5-1.2-.6-1.9-.1-.7-.2-1.5-.2-2.4v-7c0-.9.1-1.7.2-2.4s.3-1.4.6-1.9c.5-.9 1.2-1.7 2.2-2.2.9-.6 2.1-.8 3.4-.8 1 0 1.9.2 2.7.5.8.3 1.5.8 2 1.4 1.1 1.3 1.7 2.8 1.7 4.7v5.8zM77 22.4h4.2V20c0-.8-.2-1.4-.6-1.8-.4-.4-.9-.6-1.5-.6s-1.2.2-1.5.6c-.4.4-.6 1-.6 1.8v2.4zM97.1 34.8v-1.9c-.3.3-.5.6-.8.9-.3.3-.5.5-.8.7-.3.2-.7.3-1 .5h-1.4c-1.8 0-3-.7-3.7-2-.3-.5-.4-1.1-.5-1.8-.1-.7-.2-1.6-.2-2.8v-8.1c0-1.5 0-2.7.1-3.4.2-1.4.8-2.4 2-3.1.5-.4 1.3-.5 2.4-.5.8 0 1.6.2 2.2.6.7.4 1.2.9 1.7 1.6h.1V5h4.3v29.8h-4.4zm-4.2-6.9c0 .9.2 1.6.5 2.1s.9.8 1.6.8c.6 0 1.2-.2 1.5-.7.4-.5.6-1.1.6-1.9V20c0-.7-.2-1.2-.6-1.7-.4-.4-.9-.6-1.5-.6-.8 0-1.4.3-1.7.8-.3.5-.4 1.1-.4 1.8v7.6zM104.9 34.8V13.6h4.3v2.1h.1c.4-.7 1-1.2 1.6-1.7.6-.4 1.4-.6 2.4-.6.9 0 1.7.2 2.3.7.6.4 1.1.9 1.5 1.5.5-.6 1.1-1.1 1.8-1.5s1.5-.6 2.7-.6c.5 0 1.1.1 1.6.3.6.2 1.1.5 1.5.9.4.4.8 1 1.1 1.6.3.7.4 1.5.4 2.4V35h-4.3V20.1c0-.8-.2-1.4-.5-1.8-.4-.4-.9-.7-1.5-.7-.8 0-1.4.3-1.7.8-.3.5-.5 1.2-.5 2.2v14.3h-4.3V20.1c0-.8-.2-1.4-.5-1.8-.4-.4-.9-.7-1.5-.7-.8 0-1.4.3-1.7.8-.3.5-.5 1.2-.5 2.2v14.3h-4.3zM129.3 20.7c0-.9.1-1.7.2-2.4s.3-1.4.6-1.9c.5-.9 1.2-1.7 2.2-2.2.9-.6 2.1-.8 3.4-.8 1.3 0 2.5.3 3.4.8.9.6 1.7 1.3 2.2 2.2.3.6.5 1.2.6 1.9.1.7.2 1.5.2 2.4v7c0 .9-.1 1.7-.2 2.4s-.3 1.4-.6 1.9c-.5.9-1.2 1.7-2.2 2.2-.9.6-2.1.8-3.4.8-1.3 0-2.5-.3-3.4-.8-.9-.6-1.7-1.3-2.2-2.2-.3-.6-.5-1.2-.6-1.9-.1-.7-.2-1.5-.2-2.4v-7zm4.3 7.6c0 .8.2 1.4.6 1.8.4.4.9.6 1.5.6s1.1-.2 1.5-.6c.4-.4.6-1 .6-1.8V20c0-.8-.2-1.4-.6-1.8-.4-.4-.9-.6-1.5-.6s-1.2.2-1.5.6c-.4.4-.6 1-.6 1.8v8.3zM157.9 13.6v21.2h-4.3v-2.1h-.1c-.4.7-1 1.2-1.6 1.7-.6.4-1.4.6-2.4.6-.5 0-1.1-.1-1.6-.3-.5-.2-1-.5-1.4-.9-.4-.4-.8-1-1-1.6-.3-.7-.4-1.5-.4-2.4V13.6h4.3v14.7c0 .8.2 1.4.5 1.8.4.4.9.7 1.5.7.8 0 1.4-.3 1.7-.8.3-.5.5-1.2.5-2.2V13.6h4.3zM161.5 34.8V13.6h4.3v2.1h.1c.4-.7 1-1.2 1.6-1.7.6-.4 1.4-.6 2.4-.6.5 0 1.1.1 1.6.3.5.2 1 .5 1.4.9.4.4.8 1 1 1.6.3.7.4 1.5.4 2.4v16.3H170V20.1c0-.8-.2-1.4-.5-1.8-.4-.4-.9-.7-1.5-.7-.8 0-1.4.3-1.7.8-.3.5-.5 1.2-.5 2.2v14.3h-4.3zM177.7 13.6V7.1h4.3v6.4h2.6v3.3H182v11.8c0 .5 0 .9.1 1.2.1.3.3.5.5.6.2.1.5.2.8.3h1.2v4h-1.8c-1 0-1.8-.2-2.4-.5-.7-.3-1.2-.7-1.6-1.2-.4-.5-.7-1-.9-1.6-.2-.6-.3-1.2-.3-1.7V16.9h-2.1v-3.3h2.2zM186.3 9.2V5h4.3v4.3h-4.3zm0 25.6V13.6h4.3v21.2h-4.3zM204.9 34.8V9H200V5h14.1v4h-4.9v25.8h-4.3zM215 9.2V5h4.3v4.3H215zm0 25.6V13.6h4.3v21.2H215zM222.8 34.8V13.6h4.3v2.1h.1c.4-.7 1-1.2 1.6-1.7.6-.4 1.4-.6 2.4-.6.9 0 1.7.2 2.3.7.6.4 1.1.9 1.5 1.5.5-.6 1.1-1.1 1.8-1.5.6-.4 1.5-.6 2.7-.6.5 0 1.1.1 1.6.3.6.2 1.1.5 1.5.9.4.4.8 1 1.1 1.6.3.7.4 1.5.4 2.4V35h-4.3V20.1c0-.8-.2-1.4-.5-1.8-.4-.4-.9-.7-1.5-.7-.8 0-1.4.3-1.7.8-.3.5-.5 1.2-.5 2.2v14.3h-4.3V20.1c0-.8-.2-1.4-.5-1.8-.4-.4-.9-.7-1.5-.7-.8 0-1.4.3-1.7.8-.3.5-.5 1.2-.5 2.2v14.3h-4.3zM259.9 25.8h-8.5v2.9c0 .7.2 1.2.6 1.5.4.4.9.5 1.5.5.8 0 1.3-.2 1.6-.7.3-.5.4-.9.5-1.4h4.3c0 1.9-.6 3.4-1.7 4.5-.6.6-1.2 1-2 1.4-.8.3-1.7.5-2.6.5-1.3 0-2.5-.3-3.4-.8-.9-.6-1.7-1.3-2.2-2.2-.3-.6-.5-1.2-.6-1.9-.1-.7-.2-1.5-.2-2.4v-7c0-.9.1-1.7.2-2.4s.3-1.4.6-1.9c.5-.9 1.2-1.7 2.2-2.2.9-.6 2.1-.8 3.4-.8 1 0 1.9.2 2.7.5.8.3 1.5.8 2 1.4 1.1 1.3 1.7 2.8 1.7 4.7v5.8zm-8.5-3.4h4.2V20c0-.8-.2-1.4-.6-1.8-.4-.4-.9-.6-1.5-.6s-1.2.2-1.5.6c-.4.4-.6 1-.6 1.8v2.4zM270.8 19.5c0-.7-.3-1.3-.7-1.6-.4-.4-.9-.5-1.5-.5-.7 0-1.2.2-1.5.6-.4.4-.5.9-.5 1.5 0 .4.1.8.3 1.2.2.4.7.7 1.5 1l2.5 1c1.6.6 2.7 1.5 3.3 2.5.6 1.1.9 2.2.9 3.5 0 .9-.2 1.7-.5 2.5s-.8 1.4-1.3 2c-.6.6-1.2 1-2 1.4-.8.3-1.6.5-2.6.5-1.7 0-3.2-.5-4.4-1.6-.6-.5-1.1-1.2-1.4-2s-.6-1.7-.6-2.8h4c.1.6.3 1.1.6 1.6s.9.8 1.7.8c.6 0 1.2-.2 1.7-.6.5-.4.7-1 .7-1.7 0-.6-.2-1.1-.5-1.5-.3-.4-.9-.8-1.7-1.1l-2.1-.8c-1.3-.5-2.4-1.2-3.2-2.2-.8-1-1.2-2.2-1.2-3.6 0-.9.2-1.7.5-2.5s.8-1.4 1.4-2c.6-.6 1.2-1 2-1.3.8-.3 1.6-.4 2.4-.4s1.7.2 2.4.5 1.4.7 1.9 1.3c.5.6.9 1.2 1.3 2 .3.8.5 1.6.5 2.4h-3.9z"/></svg>