<svg version="1.1" id="Layer_1" xmlns="http://www.w3.org/2000/svg" x="0" y="0" viewBox="0 0 166.4 40" style="enable-background:new 0 0 166.4 40" xml:space="preserve"><style>.st0{fill:#344054}</style><path class="st0" d="M11.4 37.4c-1.5-.1-3-.5-4.4-1.2-1.4-.8-2.7-1.9-3.7-3.3-1.1-1.5-1.9-3.2-2.5-5.3-.6-2.1-.8-4.6-.7-7.3s.6-5.2 1.5-7.4c.9-2.1 2-3.9 3.3-5.3C6.1 6 7.5 5 9.1 4.3c1.6-.7 3.1-.9 4.6-.8.9.1 1.7.4 2.4.8s1.3.9 1.8 1.5.9 1.2 1.3 1.9.6 1.3.9 1.9c.2.2.3.2.5.2.5 0 1-.4 1.4-1.2.4-.8.8-2.1 1.1-4l1.1.1c-.2.9-.5 2-.8 3.2-.3 1.2-.5 2.4-.8 3.7-.2 1.3-.4 2.5-.6 3.8-.1 1.2-.2 2.4-.1 3.4-.4-.2-.8-.3-1.1-.3-.4-.1-.7-.1-1-.1h-.9c.1-1.7 0-3.3-.1-4.8s-.4-2.9-.8-4.1c-.4-1.2-.9-2.1-1.6-2.9-.7-.7-1.5-1.1-2.5-1.2-.9-.1-1.8.1-2.8.5-1 .4-2 1.2-2.8 2.4C7.4 9.5 6.6 11 6 13c-.7 1.9-1.1 4.3-1.2 7.2-.1 1.5 0 3.1.2 4.8.2 1.7.6 3.2 1.1 4.7.6 1.4 1.3 2.6 2.3 3.5 1 .9 2.2 1.4 3.7 1.4 1.1-.1 2.2-.4 3.2-.9.8-.5 1.7-1.2 2.5-2.1.8-.9 1.4-2.3 1.7-4l1.3.8c-.2.7-.5 1.6-1 2.6-.4 1-1 2.1-1.8 3-.7 1-1.7 1.8-2.8 2.5-1 .7-2.3 1-3.8.9zM42.1 16.9c0 .5-.1.9-.1 1.2-.1.3-.1.6-.1.9v.7c.1.2.2.5.4.7-.7-.2-1.4-.4-2-.5-.6-.1-1.1-.2-1.6-.2h-1.4c.3-.4.5-.8.5-1.3.1-.5.2-1 .2-1.7 0-.5 0-1-.1-1.5s-.4-.8-.8-1h-.6c-.2 0-.5.1-.7.2-.3.1-.6.3-.9.6-.4.3-.7.7-1.2 1.2-.6.7-1.2 1.5-1.7 2.3-.5.8-.9 1.6-1.3 2.5-.4.8-.6 1.6-.8 2.3-.2.7-.3 1.3-.3 1.9v.2c.1 1.1.1 2 .2 3 .1.9.2 1.7.2 2.4.1.6.2 1.1.3 1.5.1.4.3.7.5 1 .2.3.4.5.6.6.2.2.4.3.6.4l.1.9c-.4-.2-.9-.3-1.6-.3-.7-.1-1.5-.1-2.3 0-.8.1-1.6.2-2.4.4-.8.2-1.5.4-2.1.8V35c.8-.3 1.5-.9 2.1-1.7.6-.8 1-2.1 1.2-3.9l.3-2.7c.1-.9.2-1.9.2-2.8V21c-.1-1-.2-2-.4-3.1-.2-.8-.5-1.5-.7-2.1-.2-.5-.5-1.1-.8-1.5-.3-.5-.7-.8-1.1-.9l-.1-.9c.3.1.7.1 1.2.2s1 .1 1.6.1c.6 0 1.2.1 1.7.1.6 0 1.2 0 1.7-.1-.1.5-.3 1.4-.4 2.7-.2 1.3-.3 2.8-.4 4.5.4-.8.8-1.7 1.4-2.7.6-1 1.2-1.9 2-2.8.8-.8 1.6-1.5 2.6-2.1.9-.5 2-.7 3.1-.6.7.1 1.2.3 1.7.7.4.4.8.8 1.1 1.3.3.5.4 1.1.5 1.6s-.1 1.1-.1 1.5zM60.6 33c.2 0 .4-.1.6-.2.2-.1.3-.2.5-.4.1-.2.3-.4.4-.7h.6c0 .3-.1.6-.2.9-.1.3-.3.7-.6.9-.3.3-.6.5-1 .7-.4.2-.9.3-1.4.2-1.7-.2-2.8-1.8-3.1-5-.2.7-.5 1.3-.8 2s-.7 1.3-1.1 1.9c-.4.6-.9 1-1.5 1.4-.6.4-1.3.5-2.1.5-1 0-1.9-.2-2.7-.6-.8-.4-1.4-1-1.9-1.7s-.9-1.5-1.1-2.4c-.2-.9-.3-1.9-.2-2.8.1-1.4.3-2.7.6-4.1.3-1.4.5-2.7.5-3.9.1-1.2-.1-2.3-.4-3.3-.4-.9-1.2-1.6-2.4-2.1l.2-.6c.4.1.9.2 1.3.3l1.5.3c.5.1 1.1.1 1.7.1.6 0 1.2-.1 1.9-.2-.3.7-.6 1.4-.9 2-.3.6-.5 1.3-.6 2.1-.2.8-.3 1.6-.4 2.6-.1 1-.1 2.2-.1 3.6s.1 2.6.3 3.6.6 1.7 1 2.3.9 1 1.5 1.2c.6.2 1.2.3 1.9.3.7-.1 1.3-.4 1.7-1 .5-.6.9-1.3 1.2-2.2.3-.9.6-1.9.7-3.1.2-1.2.3-2.4.3-3.7.1-1.3.1-2.4 0-3.3 0-.9-.1-1.7-.3-2.3-.2-.6-.4-1.1-.7-1.5-.3-.4-.8-.7-1.3-.9l.1-.7H56c.7 0 1.4 0 2-.1s1.3-.1 1.9-.2c.6-.1 1-.2 1.3-.3-.5.9-.9 2-1.2 3.4-.4 1.4-.7 2.8-.9 4.3-.2 1.5-.4 3-.5 4.5-.1 1.5-.1 2.9.1 4.1.1 1.2.4 2.2.7 2.9.1.8.5 1.2 1.2 1.2z"/><path class="st0" d="M68.4 19.1c.3-1 .8-2 1.4-3 .6-1 1.3-1.9 2.1-2.7.8-.8 1.6-1.4 2.5-1.9.9-.5 1.9-.7 2.8-.6.9.1 1.6.5 2.2 1.2.6.7 1.1 1.5 1.4 2.5.4 1 .6 2 .7 3 .1 1 .2 1.9.1 2.5-.1.8-.2 1.6-.5 2.4-.3.8-.6 1.5-.9 2.3-.3.8-.7 1.6-1 2.4-.3.8-.5 1.7-.5 2.6-.1.9 0 1.7.3 2.5s.6 1.4 1.1 1.9c.5.4 1.1.6 1.7.5.7-.1 1.3-.5 2.1-1.4l.5.4c-.3.5-.7.9-1.3 1.4-.6.4-1.4.7-2.2.7-.6 0-1.1-.1-1.7-.3-.6-.2-1.1-.6-1.5-1.1-.4-.5-.8-1.1-1.1-1.9-.3-.8-.4-1.7-.5-2.9 0-.9.1-1.8.4-2.6.2-.8.5-1.6.8-2.4.3-.8.5-1.7.8-2.5.2-.9.3-1.9.3-2.9-.1-1-.2-1.8-.5-2.5-.3-.6-.6-1.1-.9-1.5-.4-.3-.8-.6-1.2-.7-.4-.1-.8-.1-1.2-.1-.7.1-1.5.5-2.2 1.2-.8.7-1.4 1.6-2.1 2.6-.6 1-1.1 2.2-1.5 3.6-.4 1.3-.6 2.7-.6 4.1v-.1 3.1c0 .8.1 1.4.2 1.9.1.4.3.8.5 1 .2.2.4.4.6.5.2.1.4.2.6.2v.7c-.3-.2-.8-.2-1.4-.2-.6 0-1.2 0-1.9.1s-1.4.2-2.1.4c-.7.2-1.4.5-2 .9l-.3-.6c.4-.3.8-.6 1.1-.9.3-.3.6-.6.8-1 .2-.4.4-.9.6-1.6.2-.7.3-1.5.4-2.6.2-2.1.3-4.3.3-6.3.1-2.1 0-4-.2-5.8-.1-.6-.2-1-.4-1.3-.2-.3-.5-.5-.8-.6-.3-.1-.7-.2-1-.2h-1v-.7c.6-.1 1.2-.1 1.9-.2.6-.1 1.3-.2 1.9-.2.6-.1 1.1-.2 1.6-.3.5-.1.8-.2 1.1-.3-.1.9-.1 1.7-.1 2.6 0 .9 0 1.6-.1 2.3-.1.9-.1 1.7-.1 2.4zM95.2 37.4c-1.5-.1-3-.5-4.4-1.2-1.4-.8-2.7-1.9-3.7-3.3-1.1-1.5-1.9-3.2-2.5-5.3-.6-2.1-.8-4.6-.7-7.3.1-2.8.6-5.2 1.5-7.4.9-2.1 2-3.9 3.3-5.3C89.9 6 91.3 5 92.9 4.3c1.6-.7 3.1-.9 4.6-.8.9.1 1.7.4 2.4.8s1.3.9 1.8 1.5.9 1.2 1.3 1.9.6 1.3.9 1.9c.2.2.3.2.5.2.5 0 1-.4 1.4-1.2.4-.8.8-2.1 1.1-4l1.1.1c-.2.9-.5 2-.8 3.2-.3 1.2-.5 2.4-.8 3.7-.2 1.3-.4 2.5-.6 3.8-.2 1.2-.2 2.4-.1 3.4-.4-.2-.8-.3-1.1-.3-.4-.1-.7-.1-1-.1h-.9c.1-1.7 0-3.3-.1-4.8s-.4-2.9-.8-4.1c-.4-1.2-.9-2.1-1.6-2.9-.7-.7-1.5-1.1-2.5-1.2-.9-.1-1.8.1-2.8.5-1 .4-2 1.2-2.8 2.4-.9 1.2-1.7 2.7-2.3 4.6-.7 1.9-1.1 4.3-1.2 7.2-.1 1.5 0 3.1.2 4.8.2 1.7.6 3.2 1.1 4.7.6 1.4 1.3 2.6 2.3 3.5 1 .9 2.2 1.4 3.7 1.4 1.1-.1 2.2-.4 3.2-.9.8-.5 1.7-1.2 2.5-2.1.8-.9 1.4-2.3 1.7-4l1.3.8c-.2.7-.5 1.6-1 2.6-.4 1-1 2.1-1.8 3-.7 1-1.7 1.8-2.8 2.5-1 .8-2.3 1.1-3.8 1z"/><path class="st0" d="M113.7 19.8c.4-.9.8-1.8 1.4-2.6.6-.9 1.2-1.6 1.9-2.3.7-.7 1.5-1.1 2.3-1.5.8-.3 1.7-.4 2.7-.2 1.1.2 1.9.7 2.6 1.6.6.9 1.1 1.9 1.4 3 .3 1.1.5 2.3.5 3.6s.1 2.4 0 3.4-.1 2-.2 2.8c-.1.9-.1 1.7-.2 2.5l-.3 2.4-.3 2.4c-.1 1.2 0 2 .3 2.6.3.6.8.9 1.2 1 .5.1 1-.1 1.4-.4.5-.4.8-.9 1-1.7l.7.3c-.1.5-.2 1-.4 1.4-.2.5-.5.8-.9 1.2-.4.3-.8.5-1.3.6-.5.1-1.1.1-1.7-.1-.6-.2-1.1-.5-1.6-.8-.4-.4-.7-.9-1-1.5-.2-.7-.3-1.5-.4-2.5 0-1 0-2.3.1-3.9.1-1 .2-2.1.3-3.3.1-1.2.2-2.3.2-3.4s0-2.2-.1-3.2-.3-1.9-.6-2.7c-.3-.8-.7-1.4-1.3-1.9-.6-.5-1.3-.7-2.2-.7-.7 0-1.4.3-2.1.9-.7.6-1.2 1.4-1.7 2.4s-.9 2.1-1.2 3.4c-.3 1.3-.4 2.6-.4 3.9v.6c.1 1.4.3 2.5.5 3.3.2.8.5 1.5.8 2 .3.5.7.9 1.2 1.2.5.3 1 .6 1.7 1l-.2.7c-.5-.2-1.2-.4-2.2-.6s-1.9-.4-3-.5c-1.1-.1-2.1-.2-3.1-.3-1 0-1.8.1-2.5.3l-.3-1c.4-.1.7-.3 1.2-.4.4-.1.8-.4 1.2-.9.4-.4.7-1.1 1-2 .3-.9.4-2.1.5-3.8.1-1.6.1-3.4.2-5.2v-5.5c0-1.8-.1-3.5-.2-5.2-.1-1.6-.2-3.1-.4-4.3-.2-.9-.4-1.6-.7-2.1-.3-.5-.6-.9-1-1.1-.4-.3-.7-.4-1.1-.5s-.7-.2-1-.2v-.7c1.7.1 3.3.1 5.1 0 1.7-.1 3.4-.5 5-1.2l.1.7c-.3.3-.6.6-.9.8-.3.2-.5.6-.8 1-.2.4-.5.9-.6 1.6-.2.7-.3 1.5-.4 2.6-.1.7-.1 1.6-.1 2.6s-.1 2.1-.1 3.2c0 1.2-.1 2.4-.1 3.6.1 1.2.1 2.4.1 3.6zM130 23.4c.1-1.6.4-3.1 1-4.5s1.4-2.6 2.4-3.6 2.1-1.7 3.3-2.3c1.2-.5 2.5-.7 3.8-.5 1.3.2 2.4.6 3.1 1.2.7.7 1.2 1.4 1.5 2.2.3.8.5 1.6.5 2.4v1.8c0 .4-.1.9-.1 1.3-.1.5-.1 1-.2 1.4-.1.5-.1.9-.1 1.3s0 .8.1 1c-.7-.2-1.5-.5-2.4-.7-.9-.3-1.9-.5-2.9-.6-1-.1-2.1-.2-3.3-.1-1.1 0-2.2.2-3.4.6 0 1 0 2.1.2 3.1s.5 2 .9 2.9c.4.8.8 1.5 1.2 2.1.5.6 1 1.1 1.5 1.4.5.3 1.1.5 1.6.5s1.1-.1 1.7-.5c.5-.3.8-.7 1.1-1.2.2-.4.3-.8.3-1.4 0-.5-.3-1.2-.9-1.9l5.1-.2c-.2.5-.5 1.2-.8 2-.4.8-.9 1.6-1.5 2.4-.6.8-1.4 1.4-2.3 1.9-.9.5-2 .7-3.3.7-1.3-.1-2.5-.5-3.5-1.2s-1.9-1.7-2.6-2.9c-.7-1.2-1.2-2.5-1.6-4-.3-1.4-.5-3-.4-4.6zm10.1-9.7c-.8-.1-1.5.1-2.2.6-.7.5-1.4 1.1-2 2-.6.9-1.1 1.9-1.5 3-.4 1.2-.7 2.4-.9 3.7 1.5-.2 3-.3 4.3-.3 1.3 0 2.6.1 3.7.3.3-.6.6-1.4.8-2.4.2-1 .4-2 .3-2.9 0-1-.2-1.8-.6-2.5-.3-.9-1-1.4-1.9-1.5zM166.2 16.9c0 .5-.1.9-.1 1.2-.1.3-.1.6-.1.9v.7c.1.2.2.5.4.7-.7-.2-1.4-.4-2-.5-.6-.1-1.1-.2-1.6-.2h-1.4c.3-.4.5-.8.5-1.3.1-.5.2-1 .2-1.7 0-.5 0-1-.1-1.5s-.4-.8-.8-1h-.6c-.2 0-.5.1-.7.2-.3.1-.6.3-.9.6-.4.3-.7.7-1.2 1.2-.6.7-1.2 1.5-1.7 2.3-.5.8-.9 1.6-1.3 2.5-.4.8-.6 1.6-.8 2.3-.2.7-.3 1.3-.3 1.9v.2c.1 1.1.1 2 .2 3 .1.9.2 1.7.2 2.4.1.6.2 1.1.3 1.5.1.4.3.7.5 1 .2.3.4.5.6.6.2.2.4.3.6.4l.1.9c-.4-.2-.9-.3-1.6-.3-.7-.1-1.5-.1-2.3 0-.8.1-1.6.2-2.4.4-.8.2-1.5.4-2.1.8l-.1-.9c.8-.3 1.5-.9 2.1-1.7.6-.8 1-2.1 1.2-3.9l.3-2.7c.1-.9.2-1.9.2-2.8v-2.9c-.1-1-.2-2-.4-3.1-.2-.8-.5-1.5-.7-2.1-.2-.5-.5-1.1-.8-1.5-.3-.5-.7-.8-1.1-.9l-.1-.9c.3.1.7.1 1.2.2s1 .1 1.6.1c.6 0 1.2.1 1.7.1.6 0 1.2 0 1.7-.1-.1.5-.3 1.4-.4 2.7-.2 1.3-.3 2.8-.4 4.5.4-.8.8-1.7 1.4-2.7.6-1 1.2-1.9 2-2.8.8-.8 1.6-1.5 2.6-2.1.9-.5 2-.7 3.1-.6.7.1 1.2.3 1.7.7.4.4.8.8 1.1 1.3.3.5.4 1.1.5 1.6v1.3z"/></svg>